<svg width="80" height="80" viewBox="0 0 80 80" fill="none" xmlns="http://www.w3.org/2000/svg">
<path d="M19.2917 5.53846C19.2917 4.86522 19.0368 4.21955 18.5832 3.7435C18.1295 3.26744 17.5142 3 16.8726 3C16.231 3 15.6157 3.26744 15.162 3.7435C14.7084 4.21955 14.4535 4.86522 14.4535 5.53846V10.8862C9.80879 11.2754 6.76394 12.2298 4.52545 14.5822C2.28374 16.9311 1.37416 20.1295 1 25H65C64.6258 20.1262 63.7163 16.9311 61.4745 14.5822C59.2361 12.2298 56.188 11.2754 51.5465 10.8828V5.53846C51.5465 4.86522 51.2917 4.21955 50.838 3.7435C50.3843 3.26744 49.769 3 49.1274 3C48.4858 3 47.8705 3.26744 47.4168 3.7435C46.9632 4.21955 46.7083 4.86522 46.7083 5.53846V10.6594C44.5634 10.6154 42.1571 10.6154 39.451 10.6154H26.549C23.8429 10.6154 21.4367 10.6154 19.2917 10.6594V5.53846Z" fill="#E8F4F2"/>
<path fill-rule="evenodd" clip-rule="evenodd" d="M1 34.1633C1 31.4922 1 29.1171 1.0416 27H64.9584C65 29.1171 65 31.4922 65 34.1633V40.5306C65 52.5362 65 58.5406 61.2496 62.2687C57.4992 65.9968 51.4672 66 39.4 66H26.6C14.5328 66 8.4976 66 4.7504 62.2687C1.0032 58.5375 1 52.5362 1 40.5306V34.1633ZM49 40.5306C49.8487 40.5306 50.6626 40.1952 51.2627 39.5981C51.8629 39.0011 52.2 38.1913 52.2 37.3469C52.2 36.5026 51.8629 35.6928 51.2627 35.0957C50.6626 34.4987 49.8487 34.1633 49 34.1633C48.1513 34.1633 47.3374 34.4987 46.7373 35.0957C46.1371 35.6928 45.8 36.5026 45.8 37.3469C45.8 38.1913 46.1371 39.0011 46.7373 39.5981C47.3374 40.1952 48.1513 40.5306 49 40.5306ZM36.2 37.3469C36.2 38.1913 35.8629 39.0011 35.2627 39.5981C34.6626 40.1952 33.8487 40.5306 33 40.5306C32.1513 40.5306 31.3374 40.1952 30.7373 39.5981C30.1371 39.0011 29.8 38.1913 29.8 37.3469C29.8 36.5026 30.1371 35.6928 30.7373 35.0957C31.3374 34.4987 32.1513 34.1633 33 34.1633C33.8487 34.1633 34.6626 34.4987 35.2627 35.0957C35.8629 35.6928 36.2 36.5026 36.2 37.3469ZM36.2 50.0816C36.2 50.926 35.8629 51.7358 35.2627 52.3328C34.6626 52.9299 33.8487 53.2653 33 53.2653C32.1513 53.2653 31.3374 52.9299 30.7373 52.3328C30.1371 51.7358 29.8 50.926 29.8 50.0816C29.8 49.2373 30.1371 48.4275 30.7373 47.8304C31.3374 47.2334 32.1513 46.898 33 46.898C33.8487 46.898 34.6626 47.2334 35.2627 47.8304C35.8629 48.4275 36.2 49.2373 36.2 50.0816ZM17 40.5306C17.8487 40.5306 18.6626 40.1952 19.2627 39.5981C19.8629 39.0011 20.2 38.1913 20.2 37.3469C20.2 36.5026 19.8629 35.6928 19.2627 35.0957C18.6626 34.4987 17.8487 34.1633 17 34.1633C16.1513 34.1633 15.3374 34.4987 14.7373 35.0957C14.1371 35.6928 13.8 36.5026 13.8 37.3469C13.8 38.1913 14.1371 39.0011 14.7373 39.5981C15.3374 40.1952 16.1513 40.5306 17 40.5306ZM17 53.2653C17.8487 53.2653 18.6626 52.9299 19.2627 52.3328C19.8629 51.7358 20.2 50.926 20.2 50.0816C20.2 49.2373 19.8629 48.4275 19.2627 47.8304C18.6626 47.2334 17.8487 46.898 17 46.898C16.1513 46.898 15.3374 47.2334 14.7373 47.8304C14.1371 48.4275 13.8 49.2373 13.8 50.0816C13.8 50.926 14.1371 51.7358 14.7373 52.3328C15.3374 52.9299 16.1513 53.2653 17 53.2653Z" fill="#E8F4F2"/>
<rect x="43" y="46" width="34" height="34" rx="17" fill="#0C593E"/>
<path fill-rule="evenodd" clip-rule="evenodd" d="M69.5499 56.4397C69.8311 56.721 69.9891 57.1024 69.9891 57.5002C69.9891 57.8979 69.8311 58.2794 69.5499 58.5607L58.3069 69.8037C58.1584 69.9523 57.982 70.0702 57.7878 70.1506C57.5937 70.231 57.3856 70.2724 57.1754 70.2724C56.9653 70.2724 56.7572 70.231 56.5631 70.1506C56.3689 70.0702 56.1925 69.9523 56.0439 69.8037L50.4579 64.2187C50.3147 64.0803 50.2004 63.9148 50.1218 63.7318C50.0432 63.5488 50.0018 63.352 50.0001 63.1528C49.9983 62.9536 50.0363 62.7561 50.1117 62.5717C50.1871 62.3874 50.2985 62.2199 50.4393 62.0791C50.5802 61.9382 50.7477 61.8269 50.932 61.7514C51.1163 61.676 51.3139 61.6381 51.513 61.6398C51.7122 61.6415 51.909 61.6829 52.092 61.7615C52.275 61.8401 52.4406 61.9544 52.5789 62.0977L57.1749 66.6937L67.4279 56.4397C67.5672 56.3003 67.7326 56.1897 67.9147 56.1143C68.0967 56.0388 68.2919 56 68.4889 56C68.686 56 68.8811 56.0388 69.0632 56.1143C69.2452 56.1897 69.4106 56.3003 69.5499 56.4397Z" fill="#E8F4F2"/>
</svg>
