<svg width="81" height="81" viewBox="0 0 81 81" fill="none" xmlns="http://www.w3.org/2000/svg">
<path d="M10.125 37.125H37.125V10.125H10.125V37.125ZM16.875 16.875H30.375V30.375H16.875V16.875ZM10.125 70.875H37.125V43.875H10.125V70.875ZM16.875 50.625H30.375V64.125H16.875V50.625ZM43.875 10.125V37.125H70.875V10.125H43.875ZM64.125 30.375H50.625V16.875H64.125V30.375ZM43.9088 43.875H50.6588V50.625H43.9088V43.875ZM50.6588 50.625H57.4088V57.375H50.6588V50.625ZM43.9088 57.375H50.6588V64.125H43.9088V57.375ZM57.4088 57.375H64.1588V64.125H57.4088V57.375ZM64.1588 64.125H70.9088V70.875H64.1588V64.125ZM50.6588 64.125H57.4088V70.875H50.6588V64.125ZM57.4088 43.875H64.1588V50.625H57.4088V43.875ZM64.1588 50.625H70.9088V57.375H64.1588V50.625Z" fill="white"/>
</svg>
