<svg width="80" height="80" viewBox="0 0 80 80" fill="none" xmlns="http://www.w3.org/2000/svg">
<g clip-path="url(#clip0_8_4828)">
<path d="M17.7777 42.2221V24.4443H11.111C9.34289 24.4443 7.6472 25.1467 6.39696 26.397C5.14672 27.6472 4.44434 29.3429 4.44434 31.111V71.111C4.44764 71.5237 4.56582 71.9273 4.78562 72.2767C5.00542 72.626 5.31815 72.9072 5.68878 73.0888C6.04584 73.2512 6.43953 73.3161 6.82984 73.2771C7.22014 73.2381 7.59316 73.0964 7.911 72.8666L19.3554 64.4443H49.2221C50.0644 64.4692 50.9027 64.321 51.6853 64.0087C52.4679 63.6964 53.1781 63.2268 53.7718 62.6289C54.3656 62.031 54.8302 61.3175 55.137 60.5328C55.4438 59.748 55.5862 58.9086 55.5555 58.0666V55.5554H31.111C27.5748 55.5554 24.1834 54.1507 21.6829 51.6502C19.1824 49.1497 17.7777 45.7583 17.7777 42.2221Z" fill="#E8F4F2"/>
<path d="M68.8888 8.88867H31.111C29.3429 8.88867 27.6472 9.59105 26.397 10.8413C25.1467 12.0915 24.4443 13.7872 24.4443 15.5553V42.222C24.4443 43.9901 25.1467 45.6858 26.397 46.9361C27.6472 48.1863 29.3429 48.8887 31.111 48.8887H61.2221L71.8443 57.1331C72.1601 57.3666 72.5321 57.5122 72.9225 57.5551C73.3128 57.5981 73.7076 57.5368 74.0666 57.3776C74.4447 57.1975 74.7643 56.9141 74.9884 56.5603C75.2125 56.2064 75.332 55.7964 75.3332 55.3776V15.5553C75.3342 13.8251 74.6624 12.1622 73.4598 10.9182C72.2572 9.67411 70.6181 8.94635 68.8888 8.88867Z" fill="#E8F4F2"/>
</g>
<defs>
<clipPath id="clip0_8_4828">
<rect width="80" height="80" fill="white"/>
</clipPath>
</defs>
</svg>
