<svg width="54" height="56" viewBox="0 0 54 56" fill="none" xmlns="http://www.w3.org/2000/svg">
<path d="M27 37.1663C31.9635 37.1663 36 33.0528 36 27.9997V14.2497C36 9.19426 31.9635 5.08301 27 5.08301C22.0365 5.08301 18 9.19426 18 14.2497V27.9997C18 33.0528 22.0365 37.1663 27 37.1663ZM42.75 27.9997V23.4163C42.75 22.8086 42.513 22.2257 42.091 21.7959C41.669 21.3661 41.0967 21.1247 40.5 21.1247C39.9033 21.1247 39.331 21.3661 38.909 21.7959C38.4871 22.2257 38.25 22.8086 38.25 23.4163V27.9997C38.25 34.3178 33.2033 39.458 27 39.458C20.7968 39.458 15.75 34.3178 15.75 27.9997V23.4163C15.75 22.8086 15.5129 22.2257 15.091 21.7959C14.669 21.3661 14.0967 21.1247 13.5 21.1247C12.9033 21.1247 12.331 21.3661 11.909 21.7959C11.4871 22.2257 11.25 22.8086 11.25 23.4163V27.9997C11.25 36.0663 17.1293 42.7397 24.75 43.858V46.333H18C17.4033 46.333 16.831 46.5744 16.409 47.0042C15.9871 47.434 15.75 48.0169 15.75 48.6247C15.75 49.2325 15.9871 49.8154 16.409 50.2451C16.831 50.6749 17.4033 50.9163 18 50.9163H36C36.5967 50.9163 37.169 50.6749 37.591 50.2451C38.013 49.8154 38.25 49.2325 38.25 48.6247C38.25 48.0169 38.013 47.434 37.591 47.0042C37.169 46.5744 36.5967 46.333 36 46.333H29.25V43.858C36.8708 42.7397 42.75 36.0663 42.75 27.9997Z" fill="#11AE78"/>
</svg>
