<svg width="80" height="80" viewBox="0 0 80 80" fill="none" xmlns="http://www.w3.org/2000/svg">
<path fill-rule="evenodd" clip-rule="evenodd" d="M4.11813 4.35315C-4.30841e-07 8.70258 0 15.7077 0 29.7143V44.5715C0 58.578 -4.30841e-07 65.5832 4.11813 69.9326C8.23626 74.2821 14.8597 74.2858 28.1101 74.2858H35.1376C48.3881 74.2858 55.015 74.2858 59.1296 69.9326C63.2442 65.5795 63.2478 58.578 63.2478 44.5715V29.7143C63.2478 15.7077 63.2478 8.70258 59.1296 4.35315C55.0115 0.00371388 48.3881 0 35.1376 0H28.1101C14.8597 0 8.23275 -4.54131e-07 4.11813 4.35315ZM17.5688 15.5C16.8699 15.5 16.1996 15.7935 15.7054 16.3159C15.2111 16.8384 14.9335 17.5469 14.9335 18.2857C14.9335 19.0245 15.2111 19.7331 15.7054 20.2555C16.1996 20.778 16.8699 21.0714 17.5688 21.0714H45.6789C46.3779 21.0714 47.0482 20.778 47.5424 20.2555C48.0366 19.7331 48.3143 19.0245 48.3143 18.2857C48.3143 17.5469 48.0366 16.8384 47.5424 16.3159C47.0482 15.7935 46.3779 15.5 45.6789 15.5H17.5688ZM17.5688 30.3572C16.8699 30.3572 16.1996 30.6507 15.7054 31.1731C15.2111 31.6955 14.9335 32.4041 14.9335 33.1429C14.9335 33.8817 15.2111 34.5903 15.7054 35.1127C16.1996 35.6351 16.8699 35.9286 17.5688 35.9286H35.1376C35.8366 35.9286 36.5069 35.6351 37.0011 35.1127C37.4953 34.5903 37.773 33.8817 37.773 33.1429C37.773 32.4041 37.4953 31.6955 37.0011 31.1731C36.5069 30.6507 35.8366 30.3572 35.1376 30.3572H17.5688Z" fill="#E8F4F2"/>
<path d="M55 71.5C55.4817 71.5 55.8857 71.3368 56.2121 71.0104C56.5385 70.684 56.7011 70.2805 56.7 69.8V63C56.7 62.5183 56.5368 62.1149 56.2104 61.7896C55.884 61.4643 55.4805 61.3011 55 61.3C54.5195 61.2989 54.116 61.4621 53.7896 61.7896C53.4632 62.1171 53.3 62.5206 53.3 63V69.8C53.3 70.2817 53.4632 70.6857 53.7896 71.0121C54.116 71.3385 54.5195 71.5011 55 71.5ZM55 57.9C55.4817 57.9 55.8857 57.7368 56.2121 57.4104C56.5385 57.084 56.7011 56.6805 56.7 56.2C56.6989 55.7195 56.5357 55.316 56.2104 54.9896C55.8851 54.6632 55.4817 54.5 55 54.5C54.5183 54.5 54.1149 54.6632 53.7896 54.9896C53.4643 55.316 53.3011 55.7195 53.3 56.2C53.2989 56.6805 53.4621 57.0846 53.7896 57.4121C54.1171 57.7396 54.5206 57.9023 55 57.9ZM55 80C52.6483 80 50.4383 79.5535 48.37 78.6604C46.3017 77.7673 44.5025 76.5564 42.9725 75.0275C41.4425 73.4986 40.2315 71.6995 39.3396 69.63C38.4477 67.5605 38.0011 65.3505 38 63C37.9989 60.6495 38.4454 58.4395 39.3396 56.37C40.2338 54.3005 41.4448 52.5014 42.9725 50.9725C44.5002 49.4436 46.2994 48.2327 48.37 47.3396C50.4406 46.4465 52.6506 46 55 46C57.3494 46 59.5594 46.4465 61.63 47.3396C63.7006 48.2327 65.4998 49.4436 67.0275 50.9725C68.5552 52.5014 69.7667 54.3005 70.6621 56.37C71.5574 58.4395 72.0034 60.6495 72 63C71.9966 65.3505 71.55 67.5605 70.6604 69.63C69.7707 71.6995 68.5598 73.4986 67.0275 75.0275C65.4952 76.5564 63.6961 77.7679 61.63 78.6621C59.5639 79.5563 57.3539 80.0023 55 80Z" fill="#0C593E"/>
</svg>
