<svg width="85" height="85" viewBox="0 0 85 85" fill="none" xmlns="http://www.w3.org/2000/svg">
<path d="M42.0257 56.0338C49.7514 56.0338 56.0342 49.7475 56.0342 42.0253V21.0124C56.0342 13.2867 49.7514 7.00391 42.0257 7.00391C34.3 7.00391 28.0171 13.2867 28.0171 21.0124V42.0253C28.0171 49.7475 34.3 56.0338 42.0257 56.0338ZM66.5406 42.0253V35.021C66.5406 34.0922 66.1717 33.2014 65.5149 32.5446C64.8581 31.8878 63.9673 31.5189 63.0385 31.5189C62.1097 31.5189 61.2189 31.8878 60.5621 32.5446C59.9053 33.2014 59.5364 34.0922 59.5364 35.021V42.0253C59.5364 51.6806 51.6811 59.5359 42.0257 59.5359C32.3703 59.5359 24.515 51.6806 24.515 42.0253V35.021C24.515 34.0922 24.146 33.2014 23.4893 32.5446C22.8325 31.8878 21.9417 31.5189 21.0129 31.5189C20.0841 31.5189 19.1933 31.8878 18.5365 32.5446C17.8797 33.2014 17.5107 34.0922 17.5107 35.021V42.0253C17.5107 54.3528 26.6618 64.551 38.5236 66.26V70.0423H28.0171C27.0883 70.0423 26.1975 70.4113 25.5408 71.0681C24.884 71.7249 24.515 72.6156 24.515 73.5445C24.515 74.4733 24.884 75.3641 25.5408 76.0209C26.1975 76.6776 27.0883 77.0466 28.0171 77.0466H56.0342C56.9631 77.0466 57.8538 76.6776 58.5106 76.0209C59.1674 75.3641 59.5364 74.4733 59.5364 73.5445C59.5364 72.6156 59.1674 71.7249 58.5106 71.0681C57.8538 70.4113 56.9631 70.0423 56.0342 70.0423H45.5278V66.26C57.3896 64.551 66.5406 54.3528 66.5406 42.0253Z" fill="white"/>
</svg>
