<svg width="65" height="65" viewBox="0 0 65 65" fill="none" xmlns="http://www.w3.org/2000/svg">
<g clip-path="url(#clip0_8_4869)">
<path fill-rule="evenodd" clip-rule="evenodd" d="M46.7249 40.1837C47.1 40.5547 47.6086 40.7631 48.1388 40.7631C48.669 40.7631 49.1775 40.5547 49.5526 40.1837L53.4742 36.3004L57.3957 40.1837C57.775 40.5336 58.2766 40.7242 58.7949 40.7151C59.3133 40.7061 59.8078 40.4981 60.1744 40.1351C60.541 39.7721 60.751 39.2824 60.7601 38.7691C60.7693 38.2558 60.5769 37.7591 60.2234 37.3835L56.3046 33.5002L60.2261 29.6169C60.5904 29.2431 60.7918 28.7425 60.787 28.223C60.7822 27.7035 60.5716 27.2067 60.2004 26.8395C59.8293 26.4724 59.3274 26.2642 58.8028 26.26C58.2782 26.2557 57.7729 26.4556 57.3957 26.8167L53.4742 30.7L49.5526 26.8167C49.1734 26.4667 48.6717 26.2762 48.1534 26.2853C47.635 26.2943 47.1405 26.5023 46.7739 26.8653C46.4073 27.2283 46.1974 27.718 46.1882 28.2313C46.1791 28.7446 46.3715 29.2413 46.7249 29.6169L50.6464 33.5002L46.7249 37.3835C46.3502 37.755 46.1397 38.2585 46.1397 38.7836C46.1397 39.3086 46.3502 39.8122 46.7249 40.1837ZM32.2313 56.2293C35.3338 58.2555 39.4687 56.0497 39.4687 52.3698L39.4687 14.6306C39.4687 10.9481 35.3338 8.7449 32.2313 10.7711L16.2251 21.219C16.1168 21.2905 15.9898 21.329 15.8596 21.3299L8.12328 21.3299C6.1776 21.3299 4.31162 22.0953 2.93582 23.4577C1.56002 24.8201 0.787107 26.6679 0.787107 28.5946L0.787108 38.4058C0.787108 40.3325 1.56002 42.1803 2.93582 43.5427C4.31162 44.9051 6.17761 45.6705 8.12328 45.6705L15.8596 45.6705C15.9904 45.6701 16.1184 45.7077 16.2278 45.7788L32.2313 56.2293Z" fill="#11AE78"/>
</g>
<defs>
<clipPath id="clip0_8_4869">
<rect width="63.8856" height="63.8856" fill="white" transform="matrix(1 -8.74228e-08 -8.74228e-08 -1 0.664551 64.6328)"/>
</clipPath>
</defs>
</svg>
