<svg width="65" height="65" viewBox="0 0 65 65" fill="none" xmlns="http://www.w3.org/2000/svg">
<path fill-rule="evenodd" clip-rule="evenodd" d="M32.5022 55.8152C35.5782 57.8698 39.6779 55.633 39.6779 51.9014L39.6779 13.6312C39.6779 9.89689 35.5782 7.66272 32.5022 9.7174L16.6325 20.3123C16.5251 20.3848 16.3992 20.4239 16.2701 20.4248L8.59977 20.4248C6.67069 20.4248 4.82062 21.2009 3.45656 22.5825C2.09249 23.964 1.32617 25.8378 1.32617 27.7916L1.32617 37.7409C1.32617 39.6947 2.09249 41.5685 3.45656 42.9501C4.82063 44.3316 6.6707 45.1078 8.59977 45.1078L16.2701 45.1078C16.3998 45.1073 16.5267 45.1455 16.6351 45.2176L32.5022 55.8152Z" fill="#11AE78"/>
<path d="M52.5823 47.5964C53.5182 48.4228 54.9382 48.3245 55.7542 47.3767C59.188 43.3873 61.0823 38.0409 61.1009 32.5148C61.1193 26.9888 59.2604 21.6271 55.8549 17.6084C55.0462 16.6546 53.6277 16.5462 52.6856 17.3651C51.7439 18.1842 51.6345 19.6209 52.4428 20.575C55.0972 23.7073 56.6215 27.9896 56.6065 32.4991C56.5914 37.0087 55.0393 41.2772 52.3653 44.3839C51.5494 45.3318 51.6464 46.77 52.5823 47.5964ZM44.1515 42.5553C45.0873 43.3815 46.5075 43.283 47.3234 42.3355C49.6118 39.6767 50.8602 36.1329 50.8724 32.4886C50.8844 28.8444 49.6599 25.2907 47.3906 22.613C46.5818 21.6588 45.1608 21.5479 44.2187 22.367C43.2769 23.1862 43.1698 24.6255 43.9785 25.5796C45.4965 27.371 46.3867 29.8452 46.378 32.4729C46.3693 35.1009 45.4634 37.5664 43.9346 39.3427C43.1187 40.2907 43.2156 41.7289 44.1515 42.5553Z" fill="#11AE78"/>
</svg>
