<svg width="556" height="80" viewBox="0 0 556 80" fill="none" xmlns="http://www.w3.org/2000/svg">
<g clip-path="url(#clip0_259_3501)">
<path d="M33.6712 70.0438V59.8902C33.6712 52.232 32.7247 49.9947 29.7991 43.6272L14.4826 10.2407H3.64062L23.2595 52.9203V70.0438H33.6712ZM40.469 39.1527L53.2041 10.2407H42.6202L29.8851 39.1527H40.469ZM149.233 70.9043C154.052 70.9043 158.01 68.6671 160.764 64.4507L161.28 70.0438H170.745V10.2407H160.505V31.8387C157.924 27.9665 154.138 25.9014 149.663 25.9014C139.768 25.9014 132.884 34.248 132.884 48.704C132.884 62.9879 139.596 70.9043 149.233 70.9043ZM212.134 67.1182V58.7716C208.95 60.9228 203.615 62.8158 198.625 62.8158C191.138 62.8158 188.299 59.2879 187.869 52.0599H212.564V46.6389C212.564 31.5805 205.939 25.9014 195.699 25.9014C183.222 25.9014 177.285 35.4527 177.285 48.5319C177.285 63.5902 184.685 70.9043 197.764 70.9043C204.304 70.9043 209.122 69.1833 212.134 67.1182ZM83.3207 40.5295C83.3207 30.0317 77.9858 26.0735 67.1438 26.0735C60.4321 26.0735 55.0111 28.9131 51.9133 31.1503V40.0132C55.1831 37.3457 60.1739 34.248 65.9391 34.248C70.8438 34.248 73.0811 35.969 73.0811 40.6155V43.3691H71.4462C55.7855 43.3691 48.8156 48.4459 48.8156 57.4809C48.8156 65.8275 54.1506 70.6462 62.067 70.6462C68.0903 70.6462 70.6717 68.6671 72.6508 66.6019H73.0811C73.1671 67.7205 73.5113 69.1833 73.8555 70.0438H83.837C83.4928 66.5159 83.3207 62.9879 83.3207 59.46V40.5295ZM101.907 38.9806C103.8 36.6573 106.812 34.6782 110.512 34.6782C114.126 34.6782 115.761 36.2271 115.761 39.4969V70.0438H126V38.4643C126 29.8596 122.558 26.0735 114.212 26.0735C108.102 26.0735 104.488 28.3107 102.423 30.3759H101.907L101.649 26.7619H91.6673V70.0438H101.907V38.9806ZM243.627 70.0438H255.158L241.046 47.7575L253.265 26.7619H243.025L235.625 39.8411L227.364 26.7619H215.834L228.913 47.4993L215.318 70.0438H225.73L234.42 55.4157L243.627 70.0438ZM152.245 33.9899C157.752 33.9899 160.505 38.3783 160.505 48.3598C160.505 58.4274 157.58 62.8158 151.815 62.8158C146.222 62.8158 143.468 58.5134 143.468 48.704C143.468 38.4643 146.394 33.9899 152.245 33.9899ZM195.527 33.9899C200.604 33.9899 202.152 38.2062 202.152 43.6272V44.4877H187.869C188.127 37.6039 190.622 33.9899 195.527 33.9899ZM73.0811 59.7181C71.7903 61.6111 69.381 63.16 65.767 63.16C61.4646 63.16 59.3134 60.6646 59.3134 56.8785C59.3134 51.8878 62.8414 50.1668 71.6182 50.1668H73.0811V59.7181Z" fill="black"/>
<mask id="mask0_259_3501" style="mask-type:luminance" maskUnits="userSpaceOnUse" x="271" y="0" width="80" height="80">
<path d="M350.809 0.54248H271.381V79.9711H350.809V0.54248Z" fill="white"/>
</mask>
<g mask="url(#mask0_259_3501)">
<path d="M284.619 40.257C284.619 25.6345 296.473 13.7808 311.095 13.7808C325.717 13.7808 337.572 25.6345 337.572 40.257C337.572 54.8794 325.717 66.7331 311.095 66.7331C296.473 66.7331 284.619 54.8794 284.619 40.257Z" fill="white"/>
<path d="M311.095 79.9711C301.226 79.7328 297.32 73.1356 296.127 66.7641C295.479 63.3006 295.763 57.5416 296.127 55.4861C296.717 52.1358 297.672 47.3206 298.727 41.7331C300.238 33.7267 304.247 29.1726 312.901 27.5487L327.056 24.8454C327.43 22.7444 328.141 17.18 327.494 13.7503C326.29 7.31105 321.328 0.64469 311.254 0.54248C289.313 0.542482 271.381 18.3157 271.381 40.2568C271.381 62.1978 289.154 79.9711 311.095 79.9711Z" fill="#9EB9FF"/>
<path d="M311.095 0.54248C320.964 0.780971 325.847 7.39055 327.04 13.7616C327.687 17.2255 326.426 22.9719 326.063 25.0275C325.472 28.3777 324.519 33.1929 323.462 38.7804C321.952 46.7869 317.943 51.3409 309.29 52.9649L296.117 55.5511C295.742 57.6521 294.505 63.3304 295.152 66.7601C296.355 73.1991 300.863 79.8691 310.936 79.9711C332.877 79.9711 350.81 62.1978 350.81 40.2568C350.81 18.3157 333.036 0.54248 311.095 0.54248Z" fill="#5282FF"/>
</g>
<path d="M390.378 70.9039C396.832 70.9039 401.22 68.5806 403.888 66.7736V58.427C400.446 60.9224 396.66 62.8155 391.152 62.8155C381.687 62.8155 377.213 55.1572 377.213 40.1849C377.213 24.7824 381.515 17.4684 391.669 17.4684C396.401 17.4684 400.79 19.5335 403.888 21.5126V13.166C401.134 11.1869 396.66 9.37988 391.152 9.37988C375.234 9.37988 366.629 21.0824 366.629 40.1849C366.629 59.8038 375.578 70.9039 390.378 70.9039Z" fill="black"/>
<path d="M421.025 10.2407H410.785V70.0438H421.025V10.2407Z" fill="black"/>
<path d="M446.99 25.9009C435.718 25.9009 427.888 33.9033 427.888 48.4454C427.888 62.9014 435.718 70.9038 446.99 70.9038C458.263 70.9038 466.093 62.9014 466.093 48.3593C466.093 33.9033 458.263 25.9009 446.99 25.9009ZM446.99 62.8153C441.311 62.8153 438.472 58.4269 438.472 48.4454C438.472 38.3778 441.311 33.9894 446.99 33.9894C452.669 33.9894 455.509 38.3778 455.509 48.3593C455.509 58.4269 452.669 62.8153 446.99 62.8153Z" fill="black"/>
<path d="M496.632 57.8249C494.739 60.1482 491.728 62.1273 488.028 62.1273C484.414 62.1273 482.779 60.5784 482.779 57.3086V26.7617H472.539V58.3412C472.539 66.946 475.981 70.7321 484.328 70.7321C490.437 70.7321 494.051 68.4948 496.116 66.4297H496.632L496.891 70.0437H506.872V26.7617H496.632V57.8249Z" fill="black"/>
<path d="M530.116 70.9043C534.934 70.9043 538.893 68.6671 541.646 64.4507L542.162 70.0438H551.628V10.2407H541.388V31.8387C538.806 27.9665 535.02 25.9014 530.546 25.9014C520.65 25.9014 513.767 34.248 513.767 48.704C513.767 62.9879 520.478 70.9043 530.116 70.9043ZM533.127 33.9899C538.634 33.9899 541.388 38.3783 541.388 48.3598C541.388 58.4274 538.462 62.8158 532.697 62.8158C527.104 62.8158 524.35 58.5134 524.35 48.704C524.35 38.4643 527.276 33.9899 533.127 33.9899Z" fill="black"/>
</g>
<defs>
<clipPath id="clip0_259_3501">
<rect width="556" height="79.4286" fill="white" transform="translate(0 0.543945)"/>
</clipPath>
</defs>
</svg>
